<svg width="134" height="92" viewBox="0 0 134 92" fill="none" xmlns="http://www.w3.org/2000/svg">
<mask id="path-1-outside-1_38_51" maskUnits="userSpaceOnUse" x="17.1793" y="14" width="72" height="54" fill="black">
<rect fill="white" x="17.1793" y="14" width="72" height="54"/>
<path d="M35.7191 65H21.5633C21.0545 65 20.615 64.815 20.2449 64.4449C19.8748 64.0748 19.6898 63.6353 19.6898 63.1264V18.2996C19.6898 17.7908 19.8748 17.3513 20.2449 16.9812C20.615 16.6111 21.0545 16.4261 21.5633 16.4261H35.7191C36.228 16.4261 36.6675 16.6111 37.0376 16.9812C37.4077 17.3513 37.5927 17.7908 37.5927 18.2996V63.1264C37.5927 63.6353 37.4077 64.0748 37.0376 64.4449C36.6675 64.815 36.228 65 35.7191 65ZM86.4231 43.9744V63.1264C86.4231 63.6353 86.238 64.0748 85.8679 64.4449C85.4978 64.815 85.0584 65 84.5495 65H71.2958C70.7869 65 70.3474 64.815 69.9773 64.4449C69.6072 64.0748 69.4222 63.6353 69.4222 63.1264V44.4602C69.4222 41.9158 68.2657 40.6436 65.9526 40.6436C63.6396 40.6436 62.4831 41.9158 62.4831 44.4602V63.1264C62.4831 63.6353 62.298 64.0748 61.9279 64.4449C61.5578 64.815 61.1184 65 60.6095 65H47.4251C46.9163 65 46.4768 64.815 46.1067 64.4449C45.7366 64.0748 45.5516 63.6353 45.5516 63.1264V30.7901C45.5516 30.2812 45.7366 29.8417 46.1067 29.4716C46.4768 29.1016 46.9163 28.9165 47.4251 28.9165H59.5686C60.0775 28.9165 60.517 29.1016 60.8871 29.4716C61.2571 29.8417 61.4422 30.2812 61.4422 30.7901V33.08C62.645 31.6459 64.2641 30.4894 66.2996 29.6104C68.3813 28.6852 70.6018 28.2226 72.9611 28.2226C76.7545 28.2226 79.9465 29.5642 82.5371 32.2473C85.1278 34.8842 86.4231 38.7932 86.4231 43.9744Z"/>
</mask>
<path d="M35.7191 65H21.5633C21.0545 65 20.615 64.815 20.2449 64.4449C19.8748 64.0748 19.6898 63.6353 19.6898 63.1264V18.2996C19.6898 17.7908 19.8748 17.3513 20.2449 16.9812C20.615 16.6111 21.0545 16.4261 21.5633 16.4261H35.7191C36.228 16.4261 36.6675 16.6111 37.0376 16.9812C37.4077 17.3513 37.5927 17.7908 37.5927 18.2996V63.1264C37.5927 63.6353 37.4077 64.0748 37.0376 64.4449C36.6675 64.815 36.228 65 35.7191 65ZM86.4231 43.9744V63.1264C86.4231 63.6353 86.238 64.0748 85.8679 64.4449C85.4978 64.815 85.0584 65 84.5495 65H71.2958C70.7869 65 70.3474 64.815 69.9773 64.4449C69.6072 64.0748 69.4222 63.6353 69.4222 63.1264V44.4602C69.4222 41.9158 68.2657 40.6436 65.9526 40.6436C63.6396 40.6436 62.4831 41.9158 62.4831 44.4602V63.1264C62.4831 63.6353 62.298 64.0748 61.9279 64.4449C61.5578 64.815 61.1184 65 60.6095 65H47.4251C46.9163 65 46.4768 64.815 46.1067 64.4449C45.7366 64.0748 45.5516 63.6353 45.5516 63.1264V30.7901C45.5516 30.2812 45.7366 29.8417 46.1067 29.4716C46.4768 29.1016 46.9163 28.9165 47.4251 28.9165H59.5686C60.0775 28.9165 60.517 29.1016 60.8871 29.4716C61.2571 29.8417 61.4422 30.2812 61.4422 30.7901V33.08C62.645 31.6459 64.2641 30.4894 66.2996 29.6104C68.3813 28.6852 70.6018 28.2226 72.9611 28.2226C76.7545 28.2226 79.9465 29.5642 82.5371 32.2473C85.1278 34.8842 86.4231 38.7932 86.4231 43.9744Z" fill="white"/>
<path d="M20.2449 64.4449L21.7782 62.9115L21.7782 62.9115L20.2449 64.4449ZM20.2449 16.9812L21.7782 18.5146L21.7782 18.5146L20.2449 16.9812ZM37.0376 16.9812L38.5709 15.4479L38.5709 15.4479L37.0376 16.9812ZM37.0376 64.4449L38.5709 65.9782L38.5709 65.9782L37.0376 64.4449ZM35.7192 62.8315H21.5633V67.1685H35.7192V62.8315ZM21.5633 62.8315C21.5782 62.8315 21.6294 62.8356 21.6936 62.8627C21.7565 62.8892 21.7843 62.9176 21.7782 62.9115L18.7115 65.9782C19.4753 66.742 20.4612 67.1685 21.5633 67.1685V62.8315ZM21.7782 62.9115C21.7721 62.9054 21.8006 62.9332 21.8271 62.9962C21.8541 63.0604 21.8582 63.1115 21.8582 63.1264H17.5213C17.5213 64.2285 17.9478 65.2144 18.7115 65.9782L21.7782 62.9115ZM21.8582 63.1264V18.2996H17.5213V63.1264H21.8582ZM21.8582 18.2996C21.8582 18.3146 21.8541 18.3657 21.8271 18.4299C21.8006 18.4928 21.7721 18.5207 21.7782 18.5146L18.7115 15.4479C17.9478 16.2116 17.5213 17.1976 17.5213 18.2996H21.8582ZM21.7782 18.5146C21.7843 18.5084 21.7565 18.5369 21.6936 18.5634C21.6294 18.5904 21.5782 18.5946 21.5633 18.5946V14.2576C20.4612 14.2576 19.4753 14.6841 18.7115 15.4479L21.7782 18.5146ZM21.5633 18.5946H35.7192V14.2576H21.5633V18.5946ZM35.7192 18.5946C35.7042 18.5946 35.6531 18.5904 35.5889 18.5634C35.5259 18.5369 35.4981 18.5084 35.5042 18.5146L38.5709 15.4479C37.8072 14.6841 36.8212 14.2576 35.7192 14.2576V18.5946ZM35.5042 18.5146C35.5104 18.5207 35.4819 18.4928 35.4554 18.4299C35.4284 18.3657 35.4242 18.3146 35.4242 18.2996H39.7612C39.7612 17.1976 39.3347 16.2116 38.5709 15.4479L35.5042 18.5146ZM35.4242 18.2996V63.1264H39.7612V18.2996H35.4242ZM35.4242 63.1264C35.4242 63.1115 35.4284 63.0604 35.4554 62.9962C35.4819 62.9332 35.5104 62.9054 35.5042 62.9115L38.5709 65.9782C39.3347 65.2144 39.7612 64.2285 39.7612 63.1264H35.4242ZM35.5042 62.9115C35.4981 62.9176 35.526 62.8892 35.5889 62.8627C35.6531 62.8356 35.7042 62.8315 35.7192 62.8315V67.1685C36.8212 67.1685 37.8072 66.742 38.5709 65.9782L35.5042 62.9115ZM69.9773 64.4449L68.444 65.9782L68.444 65.9782L69.9773 64.4449ZM46.1067 64.4449L47.64 62.9115V62.9115L46.1067 64.4449ZM46.1067 29.4716L47.6401 31.005L46.1067 29.4716ZM60.8871 29.4716L62.4204 27.9383L62.4204 27.9383L60.8871 29.4716ZM61.4422 33.08H59.2737V39.04L63.1037 34.4735L61.4422 33.08ZM66.2996 29.6104L67.1592 31.6012L67.1698 31.5967L67.1803 31.592L66.2996 29.6104ZM82.5371 32.2473L80.9771 33.7535L80.9837 33.7603L80.9903 33.767L82.5371 32.2473ZM84.2546 43.9744V63.1264H88.5915V43.9744H84.2546ZM84.2546 63.1264C84.2546 63.1115 84.2587 63.0604 84.2857 62.9962C84.3122 62.9332 84.3407 62.9054 84.3346 62.9115L87.4013 65.9782C88.1651 65.2144 88.5915 64.2285 88.5915 63.1264H84.2546ZM84.3346 62.9115C84.3285 62.9176 84.3563 62.8892 84.4193 62.8627C84.4834 62.8357 84.5346 62.8315 84.5495 62.8315V67.1685C85.6516 67.1685 86.6375 66.742 87.4013 65.9782L84.3346 62.9115ZM84.5495 62.8315H71.2958V67.1685H84.5495V62.8315ZM71.2958 62.8315C71.3107 62.8315 71.3618 62.8356 71.426 62.8627C71.4889 62.8892 71.5168 62.9176 71.5107 62.9115L68.444 65.9782C69.2078 66.742 70.1937 67.1685 71.2958 67.1685V62.8315ZM71.5107 62.9115C71.5046 62.9054 71.533 62.9332 71.5595 62.9962C71.5865 63.0604 71.5907 63.1115 71.5907 63.1264H67.2537C67.2537 64.2285 67.6802 65.2144 68.444 65.9782L71.5107 62.9115ZM71.5907 63.1264V44.4602H67.2537V63.1264H71.5907ZM71.5907 44.4602C71.5907 42.9022 71.241 41.3289 70.1593 40.1391C69.042 38.9101 67.4995 38.4752 65.9526 38.4752V42.8121C66.7188 42.8121 66.911 43.0133 66.9503 43.0565C67.0251 43.1388 67.2537 43.4738 67.2537 44.4602H71.5907ZM65.9526 38.4752C64.4058 38.4752 62.8632 38.9101 61.7459 40.1391C60.6642 41.3289 60.3146 42.9022 60.3146 44.4602H64.6515C64.6515 43.4738 64.8801 43.1388 64.955 43.0565C64.9942 43.0133 65.1864 42.8121 65.9526 42.8121V38.4752ZM60.3146 44.4602V63.1264H64.6515V44.4602H60.3146ZM60.3146 63.1264C60.3146 63.1115 60.3187 63.0604 60.3457 62.9962C60.3722 62.9332 60.4007 62.9054 60.3946 62.9115L63.4613 65.9782C64.225 65.2144 64.6515 64.2285 64.6515 63.1264H60.3146ZM60.3946 62.9115C60.3885 62.9176 60.4163 62.8892 60.4793 62.8627C60.5434 62.8356 60.5946 62.8315 60.6095 62.8315V67.1685C61.7116 67.1685 62.6975 66.742 63.4613 65.9782L60.3946 62.9115ZM60.6095 62.8315H47.4251V67.1685H60.6095V62.8315ZM47.4251 62.8315C47.4401 62.8315 47.4912 62.8356 47.5554 62.8627C47.6183 62.8892 47.6462 62.9176 47.64 62.9115L44.5734 65.9782C45.3371 66.742 46.3231 67.1685 47.4251 67.1685V62.8315ZM47.64 62.9115C47.6339 62.9054 47.6624 62.9332 47.6889 62.9962C47.7159 63.0604 47.7201 63.1115 47.7201 63.1264H43.3831C43.3831 64.2285 43.8096 65.2144 44.5734 65.9782L47.64 62.9115ZM47.7201 63.1264V30.7901H43.3831V63.1264H47.7201ZM47.7201 30.7901C47.7201 30.805 47.7159 30.8561 47.6889 30.9203C47.6624 30.9833 47.6339 31.0111 47.6401 31.005L44.5734 27.9383C43.8096 28.7021 43.3831 29.688 43.3831 30.7901H47.7201ZM47.6401 31.005C47.6462 30.9989 47.6183 31.0273 47.5554 31.0538C47.4912 31.0809 47.4401 31.085 47.4251 31.085V26.748C46.3231 26.748 45.3371 27.1745 44.5734 27.9383L47.6401 31.005ZM47.4251 31.085H59.5686V26.748H47.4251V31.085ZM59.5686 31.085C59.5537 31.085 59.5026 31.0809 59.4384 31.0538C59.3754 31.0273 59.3476 30.9989 59.3537 31.005L62.4204 27.9383C61.6566 27.1745 60.6707 26.748 59.5686 26.748V31.085ZM59.3537 31.005C59.3598 31.0111 59.3314 30.9833 59.3049 30.9203C59.2778 30.8561 59.2737 30.805 59.2737 30.7901H63.6107C63.6107 29.688 63.1842 28.7021 62.4204 27.9383L59.3537 31.005ZM59.2737 30.7901V33.08H63.6107V30.7901H59.2737ZM63.1037 34.4735C64.0527 33.3419 65.377 32.3708 67.1592 31.6012L65.4399 27.6196C63.1512 28.6079 61.2372 29.9499 59.7807 31.6865L63.1037 34.4735ZM67.1803 31.592C68.9748 30.7944 70.8942 30.3911 72.9611 30.3911V26.0541C70.3095 26.0541 67.7878 26.576 65.4189 27.6288L67.1803 31.592ZM72.9611 30.3911C76.1776 30.3911 78.803 31.5017 80.9771 33.7535L84.0972 30.7411C81.0901 27.6266 77.3315 26.0541 72.9611 26.0541V30.3911ZM80.9903 33.767C83.0456 35.859 84.2546 39.1307 84.2546 43.9744H88.5915C88.5915 38.4557 87.2099 33.9093 84.084 30.7276L80.9903 33.767Z" fill="black" mask="url(#path-1-outside-1_38_51)"/>
<mask id="path-3-outside-2_38_51" maskUnits="userSpaceOnUse" x="74.451" y="18.5652" width="59" height="65" fill="black">
<rect fill="white" x="74.451" y="18.5652" width="59" height="65"/>
<path d="M86.45 51.519C84.8116 51.5672 83.5587 51.1576 82.6913 50.2902C81.8239 49.4228 81.3902 48.1699 81.3902 46.5315L81.0288 26.6538C80.9806 24.9672 81.4384 23.7143 82.4021 22.8951C83.3659 22.0277 84.5947 21.594 86.0886 21.594L123.531 21.4494C124.302 21.4494 124.904 21.6904 125.338 22.1722C125.82 22.6059 126.061 23.2083 126.061 23.9793V29.5451C126.061 30.3161 125.82 30.9425 125.338 31.4244C124.904 31.8581 124.302 32.075 123.531 32.075L93.9674 32.4364V40.3875L124.181 40.4597C125.772 40.4597 126.567 41.1103 126.567 42.4114V48.2663C126.567 49.5674 125.892 50.242 124.543 50.2902L86.45 51.519ZM78.788 65.8309C78.1134 65.8791 77.5833 65.7105 77.1978 65.325C76.8123 64.8913 76.6195 64.3371 76.6195 63.6625V57.7353C76.6195 57.0607 76.8123 56.5306 77.1978 56.1451C77.5833 55.7596 78.1134 55.5668 78.788 55.5668L128.374 55.4222C129.049 55.4222 129.579 55.615 129.964 56.0005C130.35 56.386 130.542 56.9161 130.542 57.5907V62.7228C130.542 63.3974 130.35 63.9275 129.964 64.313C129.579 64.6503 129.049 64.8431 128.374 64.8913L110.231 65.2527L110.014 78.9864C109.918 80.432 109.195 81.1549 107.846 81.1549H99.3163C97.8706 81.1549 97.1478 80.432 97.1478 78.9864L96.9309 65.4695L78.788 65.8309Z"/>
</mask>
<path d="M86.45 51.519C84.8116 51.5672 83.5587 51.1576 82.6913 50.2902C81.8239 49.4228 81.3902 48.1699 81.3902 46.5315L81.0288 26.6538C80.9806 24.9672 81.4384 23.7143 82.4021 22.8951C83.3659 22.0277 84.5947 21.594 86.0886 21.594L123.531 21.4494C124.302 21.4494 124.904 21.6904 125.338 22.1722C125.82 22.6059 126.061 23.2083 126.061 23.9793V29.5451C126.061 30.3161 125.82 30.9425 125.338 31.4244C124.904 31.8581 124.302 32.075 123.531 32.075L93.9674 32.4364V40.3875L124.181 40.4597C125.772 40.4597 126.567 41.1103 126.567 42.4114V48.2663C126.567 49.5674 125.892 50.242 124.543 50.2902L86.45 51.519ZM78.788 65.8309C78.1134 65.8791 77.5833 65.7105 77.1978 65.325C76.8123 64.8913 76.6195 64.3371 76.6195 63.6625V57.7353C76.6195 57.0607 76.8123 56.5306 77.1978 56.1451C77.5833 55.7596 78.1134 55.5668 78.788 55.5668L128.374 55.4222C129.049 55.4222 129.579 55.615 129.964 56.0005C130.35 56.386 130.542 56.9161 130.542 57.5907V62.7228C130.542 63.3974 130.35 63.9275 129.964 64.313C129.579 64.6503 129.049 64.8431 128.374 64.8913L110.231 65.2527L110.014 78.9864C109.918 80.432 109.195 81.1549 107.846 81.1549H99.3163C97.8706 81.1549 97.1478 80.432 97.1478 78.9864L96.9309 65.4695L78.788 65.8309Z" fill="#FACC15"/>
<path d="M86.45 51.519L86.5137 53.6865L86.5199 53.6863L86.45 51.519ZM82.6913 50.2902L84.2246 48.7568H84.2246L82.6913 50.2902ZM81.3902 46.5315H83.5587V46.5118L83.5583 46.4921L81.3902 46.5315ZM81.0288 26.6538L83.1969 26.6143L83.1967 26.6031L83.1964 26.5918L81.0288 26.6538ZM82.4021 22.8951L83.8066 24.5473L83.8299 24.5274L83.8528 24.5069L82.4021 22.8951ZM86.0886 21.594V23.7625L86.0969 23.7624L86.0886 21.594ZM123.531 21.4494V19.2809L123.523 19.281L123.531 21.4494ZM125.338 22.1722L123.726 23.6229L123.803 23.7077L123.887 23.7841L125.338 22.1722ZM125.338 31.4244L126.871 32.9578L126.871 32.9578L125.338 31.4244ZM123.531 32.075V29.9065H123.518L123.504 29.9066L123.531 32.075ZM93.9674 32.4364L93.9408 30.2681L91.7989 30.2942V32.4364H93.9674ZM93.9674 40.3875H91.7989V42.5508L93.9622 42.5559L93.9674 40.3875ZM124.181 40.4597L124.176 42.6282H124.181V40.4597ZM124.543 50.2902L124.613 52.4575L124.62 52.4573L124.543 50.2902ZM78.788 65.8309L78.7448 63.6629L78.6891 63.664L78.6335 63.668L78.788 65.8309ZM77.1978 65.325L75.577 66.7656L75.6194 66.8133L75.6644 66.8583L77.1978 65.325ZM78.788 55.5668V57.7353L78.7943 57.7353L78.788 55.5668ZM128.374 55.4222V53.2538L128.368 53.2538L128.374 55.4222ZM129.964 56.0005L128.431 57.5339L128.431 57.5339L129.964 56.0005ZM129.964 64.313L131.392 65.945L131.446 65.8974L131.497 65.8464L129.964 64.313ZM128.374 64.8913L128.417 67.0593L128.473 67.0582L128.528 67.0542L128.374 64.8913ZM110.231 65.2527L110.188 63.0846L108.096 63.1263L108.063 65.2184L110.231 65.2527ZM110.014 78.9864L112.178 79.1306L112.181 79.0757L112.182 79.0206L110.014 78.9864ZM97.1478 78.9864H99.3163V78.969L99.316 78.9516L97.1478 78.9864ZM96.9309 65.4695L99.0991 65.4347L99.0642 63.2581L96.8878 63.3015L96.9309 65.4695ZM86.3862 49.3514C85.1356 49.3882 84.5416 49.0738 84.2246 48.7568L81.1579 51.8235C82.5757 53.2413 84.4875 53.7461 86.5137 53.6865L86.3862 49.3514ZM84.2246 48.7568C83.8859 48.4182 83.5587 47.7941 83.5587 46.5315H79.2217C79.2217 48.5457 79.7618 50.4274 81.1579 51.8235L84.2246 48.7568ZM83.5583 46.4921L83.1969 26.6143L78.8606 26.6932L79.2221 46.5709L83.5583 46.4921ZM83.1964 26.5918C83.1602 25.3275 83.4994 24.8084 83.8066 24.5473L80.9977 21.2428C79.3773 22.6202 78.8009 24.6068 78.8612 26.7157L83.1964 26.5918ZM83.8528 24.5069C84.3582 24.052 85.0435 23.7625 86.0886 23.7625V19.4255C84.1459 19.4255 82.3737 20.0033 80.9515 21.2833L83.8528 24.5069ZM86.0969 23.7624L123.539 23.6179L123.523 19.281L86.0802 19.4255L86.0969 23.7624ZM123.531 23.6179C123.692 23.6179 123.754 23.6428 123.756 23.6435C123.757 23.644 123.75 23.6413 123.74 23.6344C123.731 23.6276 123.726 23.6222 123.726 23.6229L126.95 20.7216C126.027 19.6962 124.79 19.2809 123.531 19.2809V23.6179ZM123.887 23.7841C123.888 23.7847 123.883 23.7797 123.876 23.7699C123.869 23.7601 123.866 23.7535 123.867 23.7546C123.867 23.7563 123.892 23.8187 123.892 23.9793H128.229C128.229 22.7206 127.814 21.4833 126.789 20.5604L123.887 23.7841ZM123.892 23.9793V29.5451H128.229V23.9793H123.892ZM123.892 29.5451C123.892 29.8233 123.825 29.8706 123.805 29.8911L126.871 32.9578C127.815 32.0145 128.229 30.8089 128.229 29.5451H123.892ZM123.805 29.8911C123.811 29.8848 123.819 29.878 123.828 29.8726C123.836 29.8674 123.837 29.8681 123.826 29.872C123.803 29.8803 123.716 29.9065 123.531 29.9065V34.2434C124.721 34.2434 125.933 33.8965 126.871 32.9578L123.805 29.8911ZM123.504 29.9066L93.9408 30.2681L93.9939 34.6047L123.557 34.2433L123.504 29.9066ZM91.7989 32.4364V40.3875H96.1358V32.4364H91.7989ZM93.9622 42.5559L124.176 42.6282L124.187 38.2913L93.9725 38.219L93.9622 42.5559ZM124.181 42.6282C124.438 42.6282 124.587 42.6553 124.655 42.6738C124.718 42.691 124.677 42.6911 124.597 42.626C124.558 42.5938 124.518 42.5528 124.483 42.5045C124.447 42.4563 124.424 42.4111 124.41 42.3757C124.381 42.3067 124.398 42.3028 124.398 42.4114H128.735C128.735 41.2989 128.374 40.1126 127.344 39.2693C126.396 38.4943 125.217 38.2913 124.181 38.2913V42.6282ZM124.398 42.4114V48.2663H128.735V42.4114H124.398ZM124.398 48.2663C124.398 48.4095 124.379 48.4503 124.388 48.4239C124.393 48.409 124.406 48.3782 124.43 48.3382C124.455 48.2976 124.487 48.2549 124.527 48.2147C124.568 48.1746 124.607 48.1447 124.641 48.124C124.674 48.1036 124.696 48.0956 124.699 48.0944C124.701 48.0936 124.635 48.117 124.466 48.1231L124.62 52.4573C125.615 52.4217 126.734 52.142 127.594 51.2814C128.468 50.4075 128.735 49.2776 128.735 48.2663H124.398ZM124.473 48.1228L86.38 49.3516L86.5199 53.6863L124.613 52.4575L124.473 48.1228ZM78.6335 63.668C78.5129 63.6766 78.495 63.6592 78.542 63.6742C78.5659 63.6818 78.5994 63.6956 78.6369 63.7183C78.6745 63.7411 78.7065 63.7669 78.7311 63.7916L75.6644 66.8583C76.5988 67.7927 77.8042 68.0752 78.9425 67.9939L78.6335 63.668ZM78.8185 63.8843C78.8167 63.8823 78.8163 63.8834 78.8122 63.8717C78.8065 63.8551 78.788 63.793 78.788 63.6625H74.451C74.451 64.7765 74.7822 65.8714 75.577 66.7656L78.8185 63.8843ZM78.788 63.6625V57.7353H74.451V63.6625H78.788ZM78.788 57.7353C78.788 57.6025 78.8071 57.5589 78.802 57.5728C78.7994 57.5801 78.7922 57.5971 78.7782 57.6193C78.7641 57.6416 78.7476 57.662 78.7311 57.6784L75.6644 54.6117C74.7802 55.4959 74.451 56.6303 74.451 57.7353H78.788ZM78.7311 57.6784C78.7147 57.6949 78.6943 57.7114 78.672 57.7255C78.6498 57.7395 78.6328 57.7467 78.6255 57.7493C78.6116 57.7544 78.6552 57.7353 78.788 57.7353V53.3983C77.683 53.3983 76.5486 53.7275 75.6644 54.6117L78.7311 57.6784ZM78.7943 57.7353L128.38 57.5907L128.368 53.2538L78.7817 53.3983L78.7943 57.7353ZM128.374 57.5907C128.507 57.5907 128.55 57.6098 128.536 57.6047C128.529 57.6021 128.512 57.5949 128.49 57.5809C128.468 57.5668 128.447 57.5503 128.431 57.5339L131.497 54.4672C130.613 53.583 129.479 53.2538 128.374 53.2538V57.5907ZM128.431 57.5339C128.414 57.5174 128.398 57.4971 128.384 57.4747C128.37 57.4525 128.363 57.4356 128.36 57.4283C128.355 57.4143 128.374 57.4579 128.374 57.5907H132.711C132.711 56.4857 132.382 55.3514 131.497 54.4672L128.431 57.5339ZM128.374 57.5907V62.7228H132.711V57.5907H128.374ZM128.374 62.7228C128.374 62.8556 128.355 62.8992 128.36 62.8853C128.363 62.878 128.37 62.861 128.384 62.8388C128.398 62.8165 128.414 62.7961 128.431 62.7797L131.497 65.8464C132.382 64.9622 132.711 63.8278 132.711 62.7228H128.374ZM128.536 62.6811C128.605 62.6209 128.574 62.703 128.219 62.7283L128.528 67.0542C129.523 66.9832 130.552 66.6797 131.392 65.945L128.536 62.6811ZM128.331 62.7232L110.188 63.0846L110.274 67.4207L128.417 67.0593L128.331 62.7232ZM108.063 65.2184L107.846 78.9521L112.182 79.0206L112.399 65.2869L108.063 65.2184ZM107.85 78.8421C107.837 79.0414 107.807 79.1399 107.796 79.1687C107.791 79.1814 107.792 79.1751 107.804 79.1563C107.816 79.1369 107.836 79.1093 107.866 79.0794C107.896 79.0493 107.929 79.0237 107.961 79.004C107.993 78.9845 108.016 78.9752 108.026 78.9719C108.042 78.9661 107.994 78.9864 107.846 78.9864V83.3233C108.905 83.3233 110.047 83.0317 110.933 82.1461C111.795 81.2841 112.109 80.1608 112.178 79.1306L107.85 78.8421ZM107.846 78.9864H99.3163V83.3233H107.846V78.9864ZM99.3163 78.9864C99.2251 78.9864 99.1591 78.9806 99.1147 78.9743C99.0705 78.968 99.052 78.9617 99.0533 78.9621C99.0553 78.9628 99.0769 78.9703 99.1105 78.9905C99.1271 79.0004 99.1457 79.0129 99.1652 79.0281C99.1848 79.0434 99.2044 79.0605 99.2233 79.0794C99.2422 79.0983 99.2593 79.1178 99.2745 79.1374C99.2898 79.157 99.3022 79.1755 99.3122 79.1921C99.3324 79.2257 99.3398 79.2473 99.3405 79.2494C99.341 79.2507 99.3347 79.2321 99.3284 79.188C99.322 79.1436 99.3163 79.0776 99.3163 78.9864H94.9793C94.9793 80.0435 95.2451 81.2346 96.1566 82.1461C97.0681 83.0576 98.2592 83.3233 99.3163 83.3233V78.9864ZM99.316 78.9516L99.0991 65.4347L94.7627 65.5043L94.9796 79.0212L99.316 78.9516ZM96.8878 63.3015L78.7448 63.6629L78.8312 67.999L96.9741 67.6376L96.8878 63.3015Z" fill="black" mask="url(#path-3-outside-2_38_51)"/>
<mask id="path-5-inside-3_38_51" fill="white">
<path fill-rule="evenodd" clip-rule="evenodd" d="M43.5002 33.5338C47.0209 32.3219 48.8925 28.4854 47.6806 24.9647L34.9312 29.3535C36.1431 32.8742 39.9796 34.7458 43.5002 33.5338Z"/>
</mask>
<path fill-rule="evenodd" clip-rule="evenodd" d="M43.5002 33.5338C47.0209 32.3219 48.8925 28.4854 47.6806 24.9647L34.9312 29.3535C36.1431 32.8742 39.9796 34.7458 43.5002 33.5338Z" fill="#EAB308"/>
<path d="M47.6806 24.9647L48.6871 24.6183L48.3406 23.6117L47.3341 23.9582L47.6806 24.9647ZM34.9312 29.3535L34.5847 28.347L33.5781 28.6935L33.9246 29.7L34.9312 29.3535ZM46.674 25.3112C47.6946 28.276 46.1185 31.5067 43.1538 32.5273L43.8467 34.5404C47.9233 33.1371 50.0904 28.6948 48.6871 24.6183L46.674 25.3112ZM47.3341 23.9582L34.5847 28.347L35.2776 30.36L48.027 25.9713L47.3341 23.9582ZM43.1538 32.5273C40.189 33.5479 36.9583 31.9718 35.9377 29.007L33.9246 29.7C35.3279 33.7765 39.7702 35.9436 43.8467 34.5404L43.1538 32.5273Z" fill="black" mask="url(#path-5-inside-3_38_51)"/>
<line x1="35.5211" y1="29.3253" x2="36.0386" y2="13.3859" stroke="black" stroke-width="1.0645"/>
<line x1="47.2747" y1="25.3089" x2="37.1713" y2="13.4009" stroke="black" stroke-width="1.0645"/>
<mask id="path-9-inside-4_38_51" fill="white">
<path fill-rule="evenodd" clip-rule="evenodd" d="M13.3043 43.9284C16.825 42.7164 18.6966 38.8799 17.4846 35.3593L4.73523 39.748C5.94716 43.2687 9.78367 45.1403 13.3043 43.9284Z"/>
</mask>
<path fill-rule="evenodd" clip-rule="evenodd" d="M13.3043 43.9284C16.825 42.7164 18.6966 38.8799 17.4846 35.3593L4.73523 39.748C5.94716 43.2687 9.78367 45.1403 13.3043 43.9284Z" fill="#EAB308"/>
<path d="M17.4846 35.3593L18.4912 35.0128L18.1447 34.0063L17.1382 34.3527L17.4846 35.3593ZM4.73523 39.748L4.38875 38.7415L3.38222 39.088L3.7287 40.0945L4.73523 39.748ZM16.4781 35.7058C17.4987 38.6705 15.9226 41.9013 12.9578 42.9218L13.6508 44.9349C17.7273 43.5316 19.8945 39.0893 18.4912 35.0128L16.4781 35.7058ZM17.1382 34.3527L4.38875 38.7415L5.08171 40.7546L17.8311 36.3658L17.1382 34.3527ZM12.9578 42.9218C9.99308 43.9424 6.76233 42.3663 5.74176 39.4016L3.7287 40.0945C5.13198 44.1711 9.57426 46.3382 13.6508 44.9349L12.9578 42.9218Z" fill="black" mask="url(#path-9-inside-4_38_51)"/>
<line x1="5.32533" y1="39.7198" x2="5.84275" y2="23.7804" stroke="black" stroke-width="1.0645"/>
<line x1="17.0788" y1="35.7035" x2="6.97534" y2="23.7954" stroke="black" stroke-width="1.0645"/>
<mask id="path-13-inside-5_38_51" fill="white">
<path fill-rule="evenodd" clip-rule="evenodd" d="M13.3043 43.9281C16.825 42.7162 18.6966 38.8797 17.4846 35.359L4.73523 39.7478C5.94716 43.2685 9.78367 45.14 13.3043 43.9281Z"/>
</mask>
<path fill-rule="evenodd" clip-rule="evenodd" d="M13.3043 43.9281C16.825 42.7162 18.6966 38.8797 17.4846 35.359L4.73523 39.7478C5.94716 43.2685 9.78367 45.14 13.3043 43.9281Z" fill="#EAB308"/>
<path d="M17.4846 35.359L18.4912 35.0125L18.1447 34.006L17.1382 34.3525L17.4846 35.359ZM4.73523 39.7478L4.38875 38.7413L3.38222 39.0878L3.7287 40.0943L4.73523 39.7478ZM16.4781 35.7055C17.4987 38.6703 15.9226 41.901 12.9578 42.9216L13.6508 44.9347C17.7273 43.5314 19.8945 39.0891 18.4912 35.0125L16.4781 35.7055ZM17.1382 34.3525L4.38875 38.7413L5.08171 40.7543L17.8311 36.3656L17.1382 34.3525ZM12.9578 42.9216C9.99308 43.9422 6.76233 42.3661 5.74176 39.4013L3.7287 40.0943C5.13198 44.1708 9.57426 46.3379 13.6508 44.9347L12.9578 42.9216Z" fill="black" mask="url(#path-13-inside-5_38_51)"/>
<line x1="5.32533" y1="39.7195" x2="5.84275" y2="23.7802" stroke="black" stroke-width="1.0645"/>
<line x1="17.0788" y1="35.7035" x2="6.97534" y2="23.7954" stroke="black" stroke-width="1.0645"/>
<rect x="2.6676" y="23.385" width="38.6768" height="3.19349" rx="1.59675" transform="rotate(-18.9952 2.6676 23.385)" fill="#EAB308" stroke="black" stroke-width="1.0645"/>
<circle cx="21.4727" cy="18.6003" r="2.83866" transform="rotate(-18.9952 21.4727 18.6003)" fill="#FACC15" stroke="black" stroke-width="1.41933"/>
</svg>
